<svg xmlns="http://www.w3.org/2000/svg" aria-hidden="true" focusable="false">
  <symbol id="sym-star-full" viewBox="0 0 24 24">
    <path fill="currentColor" stroke="currentColor" stroke-width="2" stroke-linecap="round" stroke-linejoin="round" d="M11.525 2.295a.53.53 0 0 1 .95 0l2.31 4.679a2.123 2.123 0 0 0 1.595 1.16l5.166.756a.53.53 0 0 1 .294.904l-3.736 3.638a2.123 2.123 0 0 0-.611 1.878l.882 5.14a.53.53 0 0 1-.771.56l-4.618-2.428a2.122 2.122 0 0 0-1.973 0L6.396 21.01a.53.53 0 0 1-.77-.56l.881-5.139a2.122 2.122 0 0 0-.611-1.879L2.16 9.795a.53.53 0 0 1 .294-.906l5.165-.755a2.122 2.122 0 0 0 1.597-1.16z"></path>
  </symbol>
  <symbol id="sym-star-half" viewBox="0 0 24 24">
    <path fill="currentColor" stroke="currentColor" stroke-width="2" stroke-linecap="round" stroke-linejoin="round" d="M12 18.338a2.1 2.1 0 0 0-.987.244L6.396 21.01a.53.53 0 0 1-.77-.56l.881-5.139a2.12 2.12 0 0 0-.611-1.879L2.16 9.795a.53.53 0 0 1 .294-.906l5.165-.755a2.12 2.12 0 0 0 1.597-1.16l2.309-4.679A.53.53 0 0 1 12 2"></path>
  </symbol>
  <symbol id="sym-star-empty" viewBox="0 0 24 24">
    <path fill="none" stroke="currentColor" stroke-width="2" stroke-linecap="round" stroke-linejoin="round" d="M11.525 2.295a.53.53 0 0 1 .95 0l2.31 4.679a2.123 2.123 0 0 0 1.595 1.16l5.166.756a.53.53 0 0 1 .294.904l-3.736 3.638a2.123 2.123 0 0 0-.611 1.878l.882 5.14a.53.53 0 0 1-.771.56l-4.618-2.428a2.122 2.122 0 0 0-1.973 0L6.396 21.01a.53.53 0 0 1-.77-.56l.881-5.139a2.122 2.122 0 0 0-.611-1.879L2.16 9.795a.53.53 0 0 1 .294-.906l5.165-.755a2.122 2.122 0 0 0 1.597-1.16z"></path>
  </symbol>
  <symbol id="sym-package" viewBox="0 0 24 24">
    <path fill="none" stroke="currentColor" stroke-width="2" stroke-linecap="round" stroke-linejoin="round" d="M21 16V8a2 2 0 0 0-1-1.73l-7-4a2 2 0 0 0-2 0l-7 4A2 2 0 0 0 3 8v8a2 2 0 0 0 1 1.73l7 4a2 2 0 0 0 2 0l7-4A2 2 0 0 0 21 16z"></path>
    <polyline fill="none" stroke="currentColor" stroke-width="2" stroke-linecap="round" stroke-linejoin="round" points="3.27 6.96 12 12.01 20.73 6.96"></polyline>
    <line fill="none" stroke="currentColor" stroke-width="2" stroke-linecap="round" stroke-linejoin="round" x1="12" y1="22.08" x2="12" y2="12"></line>
  </symbol>
  <symbol id="sym-truck" viewBox="0 0 24 24">
    <path fill="none" stroke="currentColor" stroke-width="2" stroke-linecap="round" stroke-linejoin="round" d="M14 18V6a2 2 0 0 0-2-2H4a2 2 0 0 0-2 2v11a1 1 0 0 0 1 1h2"></path>
    <path fill="none" stroke="currentColor" stroke-width="2" stroke-linecap="round" stroke-linejoin="round" d="M15 18H9"></path>
    <path fill="none" stroke="currentColor" stroke-width="2" stroke-linecap="round" stroke-linejoin="round" d="M19 18h2a1 1 0 0 0 1-1v-3.65a1 1 0 0 0-.22-.624l-3.48-4.35A1 1 0 0 0 17.52 8H14"></path>
    <circle fill="none" stroke="currentColor" stroke-width="2" cx="17" cy="18" r="2"></circle>
    <circle fill="none" stroke="currentColor" stroke-width="2" cx="7" cy="18" r="2"></circle>
  </symbol>
  <symbol id="sym-shield" viewBox="0 0 24 24">
    <path fill="none" stroke="currentColor" stroke-width="2" stroke-linecap="round" stroke-linejoin="round" d="M12 22s8-4 8-10V5l-8-3-8 3v7c0 6 8 10 8 10z"></path>
  </symbol>
  <symbol id="sym-chevron-down" viewBox="0 0 24 24">
    <path fill="none" stroke="currentColor" stroke-width="2" stroke-linecap="round" stroke-linejoin="round" d="m6 9 6 6 6-6"></path>
  </symbol>
  <symbol id="sym-chevron-left" viewBox="0 0 24 24">
    <path fill="none" stroke="currentColor" stroke-width="2" stroke-linecap="round" stroke-linejoin="round" d="m15 18-6-6 6-6"></path>
  </symbol>
  <symbol id="sym-chevron-right" viewBox="0 0 24 24">
    <path fill="none" stroke="currentColor" stroke-width="2" stroke-linecap="round" stroke-linejoin="round" d="m9 18 6-6-6-6"></path>
  </symbol>
  <symbol id="sym-cart" viewBox="0 0 24 24">
    <circle fill="none" stroke="currentColor" stroke-width="2" cx="8" cy="21" r="1"></circle>
    <circle fill="none" stroke="currentColor" stroke-width="2" cx="19" cy="21" r="1"></circle>
    <path fill="none" stroke="currentColor" stroke-width="2" stroke-linecap="round" stroke-linejoin="round" d="M2.05 2.05h2l2.66 12.42a2 2 0 0 0 2 1.58h9.78a2 2 0 0 0 1.95-1.57l1.65-7.43H5.12"></path>
  </symbol>
  <symbol id="sym-social-facebook" viewBox="0 0 24 24">
    <path fill="none" stroke="currentColor" stroke-width="2" stroke-linecap="round" stroke-linejoin="round" d="M18 2h-3a5 5 0 0 0-5 5v3H7v4h3v8h4v-8h3l1-4h-4V7a1 1 0 0 1 1-1h3z"></path>
  </symbol>
  <symbol id="sym-social-twitter" viewBox="0 0 24 24">
    <path fill="none" stroke="currentColor" stroke-width="2" stroke-linecap="round" stroke-linejoin="round" d="M22 4s-.7 2.1-2 3.4c1.6 10-9.4 17.3-18 11.6 2.2.1 4.4-.6 6-2C3 15.5.5 9.6 3 5c2.2 2.6 5.6 4.1 9 4-.9-4.2 4-6.6 7-3.8 1.1 0 3-1.2 3-1.2z"></path>
  </symbol>
  <symbol id="sym-social-instagram" viewBox="0 0 24 24">
    <rect fill="none" stroke="currentColor" stroke-width="2" width="20" height="20" x="2" y="2" rx="5" ry="5"></rect>
    <path fill="none" stroke="currentColor" stroke-width="2" stroke-linecap="round" stroke-linejoin="round" d="M16 11.37A4 4 0 1 1 12.63 8 4 4 0 0 1 16 11.37z"></path>
    <line fill="none" stroke="currentColor" stroke-width="2" stroke-linecap="round" x1="17.5" x2="17.51" y1="6.5" y2="6.5"></line>
  </symbol>
  <symbol id="sym-social-linkedin" viewBox="0 0 24 24">
    <path fill="none" stroke="currentColor" stroke-width="2" stroke-linecap="round" stroke-linejoin="round" d="M16 8a6 6 0 0 1 6 6v7h-4v-7a2 2 0 0 0-2-2 2 2 0 0 0-2 2v7h-4v-7a6 6 0 0 1 6-6z"></path>
    <rect fill="none" stroke="currentColor" stroke-width="2" width="4" height="12" x="2" y="9"></rect>
    <circle fill="none" stroke="currentColor" stroke-width="2" cx="4" cy="4" r="2"></circle>
  </symbol>
  <symbol id="sym-mail" viewBox="0 0 24 24">
    <rect fill="none" stroke="currentColor" stroke-width="2" width="20" height="16" x="2" y="4" rx="2"></rect>
    <path fill="none" stroke="currentColor" stroke-width="2" stroke-linecap="round" stroke-linejoin="round" d="m22 7-8.97 5.7a1.94 1.94 0 0 1-2.06 0L2 7"></path>
  </symbol>
  <symbol id="sym-menu" viewBox="0 0 24 24">
    <line fill="none" stroke="currentColor" stroke-width="2" stroke-linecap="round" x1="4" x2="20" y1="6" y2="6"></line>
    <line fill="none" stroke="currentColor" stroke-width="2" stroke-linecap="round" x1="4" x2="20" y1="12" y2="12"></line>
    <line fill="none" stroke="currentColor" stroke-width="2" stroke-linecap="round" x1="4" x2="20" y1="18" y2="18"></line>
  </symbol>
  <symbol id="sym-search" viewBox="0 0 24 24">
    <circle fill="none" stroke="currentColor" stroke-width="2" cx="11" cy="11" r="8"></circle>
    <path fill="none" stroke="currentColor" stroke-width="2" stroke-linecap="round" stroke-linejoin="round" d="m21 21-4.3-4.3"></path>
  </symbol>
  <symbol id="sym-filter" viewBox="0 0 24 24">
    <line fill="none" stroke="currentColor" stroke-width="2" stroke-linecap="round" x1="21" x2="14" y1="4" y2="4"></line>
    <line fill="none" stroke="currentColor" stroke-width="2" stroke-linecap="round" x1="10" x2="3" y1="4" y2="4"></line>
    <line fill="none" stroke="currentColor" stroke-width="2" stroke-linecap="round" x1="21" x2="12" y1="12" y2="12"></line>
    <line fill="none" stroke="currentColor" stroke-width="2" stroke-linecap="round" x1="8" x2="3" y1="12" y2="12"></line>
    <line fill="none" stroke="currentColor" stroke-width="2" stroke-linecap="round" x1="21" x2="16" y1="20" y2="20"></line>
    <line fill="none" stroke="currentColor" stroke-width="2" stroke-linecap="round" x1="12" x2="3" y1="20" y2="20"></line>
    <line fill="none" stroke="currentColor" stroke-width="2" stroke-linecap="round" x1="14" x2="14" y1="2" y2="6"></line>
    <line fill="none" stroke="currentColor" stroke-width="2" stroke-linecap="round" x1="8" x2="8" y1="10" y2="14"></line>
    <line fill="none" stroke="currentColor" stroke-width="2" stroke-linecap="round" x1="16" x2="16" y1="18" y2="22"></line>
  </symbol>
  <symbol id="sym-check" viewBox="0 0 24 24">
    <path fill="none" stroke="currentColor" stroke-width="2" stroke-linecap="round" stroke-linejoin="round" d="M20 6 9 17l-5-5"></path>
  </symbol>
</svg>
